<svg width="24" height="24" viewBox="0 0 22 22" fill="currentColor" xmlns="http://www.w3.org/2000/svg">
  <path fill-rule="evenodd" clip-rule="evenodd" d="M11 0.25C11.1989 0.25 11.3897 0.329018 11.5303 0.46967C11.671 0.610322 11.75 0.801088 11.75 1V3C11.75 3.19891 11.671 3.38968 11.5303 3.53033C11.3897 3.67098 11.1989 3.75 11 3.75C10.8011 3.75 10.6103 3.67098 10.4697 3.53033C10.329 3.38968 10.25 3.19891 10.25 3V1C10.25 0.801088 10.329 0.610322 10.4697 0.46967C10.6103 0.329018 10.8011 0.25 11 0.25ZM2.669 2.716C2.7355 2.64328 2.81567 2.58438 2.90494 2.54266C2.99421 2.50094 3.09082 2.47722 3.18926 2.47286C3.2877 2.46849 3.38604 2.48357 3.47865 2.51722C3.57126 2.55088 3.65633 2.60245 3.729 2.669L5.95 4.7C6.02421 4.76604 6.08457 4.84616 6.12756 4.93571C6.17056 5.02527 6.19533 5.12247 6.20045 5.22168C6.20557 5.32089 6.19092 5.42012 6.15737 5.51362C6.12382 5.60713 6.07202 5.69303 6.00499 5.76635C5.93797 5.83967 5.85704 5.89895 5.76692 5.94073C5.67679 5.98252 5.57926 6.00598 5.48 6.00976C5.38073 6.01354 5.2817 5.99757 5.18865 5.96276C5.09561 5.92795 5.01041 5.87501 4.938 5.807L2.716 3.776C2.64328 3.7095 2.58438 3.62933 2.54266 3.54006C2.50094 3.45079 2.47722 3.35418 2.47286 3.25574C2.46849 3.1573 2.48357 3.05896 2.51722 2.96635C2.55088 2.87374 2.60245 2.78867 2.669 2.716ZM19.331 2.716C19.3975 2.78867 19.4491 2.87374 19.4828 2.96635C19.5164 3.05896 19.5315 3.1573 19.5271 3.25574C19.5228 3.35418 19.4991 3.45079 19.4573 3.54006C19.4156 3.62933 19.3567 3.7095 19.284 3.776L17.062 5.807C16.9147 5.93806 16.7217 6.00585 16.5248 5.9957C16.3279 5.98554 16.1429 5.89826 16.0099 5.75274C15.8769 5.60722 15.8065 5.41516 15.814 5.21814C15.8215 5.02112 15.9063 4.83498 16.05 4.7L18.272 2.669C18.3447 2.60245 18.4297 2.55088 18.5224 2.51722C18.615 2.48357 18.7133 2.46849 18.8117 2.47286C18.9102 2.47722 19.0068 2.50094 19.0961 2.54266C19.1853 2.58438 19.2655 2.64328 19.332 2.716H19.331ZM11 6.75C10.4419 6.75 9.88923 6.85993 9.3736 7.07351C8.85796 7.28709 8.38944 7.60015 7.9948 7.9948C7.60015 8.38944 7.28709 8.85796 7.07351 9.3736C6.85993 9.88923 6.75 10.4419 6.75 11C6.75 11.5581 6.85993 12.1108 7.07351 12.6264C7.28709 13.142 7.60015 13.6106 7.9948 14.0052C8.38944 14.3999 8.85796 14.7129 9.3736 14.9265C9.88923 15.1401 10.4419 15.25 11 15.25C12.1272 15.25 13.2082 14.8022 14.0052 14.0052C14.8022 13.2082 15.25 12.1272 15.25 11C15.25 9.87283 14.8022 8.79183 14.0052 7.9948C13.2082 7.19777 12.1272 6.75 11 6.75ZM5.25 11C5.25 9.47501 5.8558 8.01247 6.93414 6.93414C8.01247 5.8558 9.47501 5.25 11 5.25C12.525 5.25 13.9875 5.8558 15.0659 6.93414C16.1442 8.01247 16.75 9.47501 16.75 11C16.75 12.525 16.1442 13.9875 15.0659 15.0659C13.9875 16.1442 12.525 16.75 11 16.75C9.47501 16.75 8.01247 16.1442 6.93414 15.0659C5.8558 13.9875 5.25 12.525 5.25 11ZM0.25 11C0.25 10.8011 0.329018 10.6103 0.46967 10.4697C0.610322 10.329 0.801088 10.25 1 10.25H3C3.19891 10.25 3.38968 10.329 3.53033 10.4697C3.67098 10.6103 3.75 10.8011 3.75 11C3.75 11.1989 3.67098 11.3897 3.53033 11.5303C3.38968 11.671 3.19891 11.75 3 11.75H1C0.801088 11.75 0.610322 11.671 0.46967 11.5303C0.329018 11.3897 0.25 11.1989 0.25 11ZM18.25 11C18.25 10.8011 18.329 10.6103 18.4697 10.4697C18.6103 10.329 18.8011 10.25 19 10.25H21C21.1989 10.25 21.3897 10.329 21.5303 10.4697C21.671 10.6103 21.75 10.8011 21.75 11C21.75 11.1989 21.671 11.3897 21.5303 11.5303C21.3897 11.671 21.1989 11.75 21 11.75H19C18.8011 11.75 18.6103 11.671 18.4697 11.5303C18.329 11.3897 18.25 11.1989 18.25 11ZM16.026 16.025C16.1666 15.8845 16.3572 15.8057 16.556 15.8057C16.7548 15.8057 16.9454 15.8845 17.086 16.025L19.308 18.248C19.4405 18.3902 19.5126 18.5782 19.5092 18.7725C19.5057 18.9668 19.427 19.1522 19.2896 19.2896C19.1522 19.427 18.9668 19.5057 18.7725 19.5092C18.5782 19.5126 18.3902 19.4405 18.248 19.308L16.025 17.086C15.8845 16.9454 15.8057 16.7548 15.8057 16.556C15.8057 16.3572 15.8845 16.1666 16.025 16.026L16.026 16.025ZM5.975 16.025C6.04469 16.0946 6.09998 16.1774 6.1377 16.2684C6.17542 16.3594 6.19484 16.457 6.19484 16.5555C6.19484 16.654 6.17542 16.7516 6.1377 16.8426C6.09998 16.9336 6.04469 17.0164 5.975 17.086L3.752 19.308C3.60982 19.4405 3.42178 19.5126 3.22748 19.5092C3.03318 19.5057 2.84779 19.427 2.71038 19.2896C2.57297 19.1522 2.49425 18.9668 2.49082 18.7725C2.4874 18.5782 2.55952 18.3902 2.692 18.248L4.914 16.025C5.05463 15.8845 5.24525 15.8057 5.444 15.8057C5.64275 15.8057 5.83437 15.8845 5.975 16.025ZM11 18.25C11.1989 18.25 11.3897 18.329 11.5303 18.4697C11.671 18.6103 11.75 18.8011 11.75 19V21C11.75 21.1989 11.671 21.3897 11.5303 21.5303C11.3897 21.671 11.1989 21.75 11 21.75C10.8011 21.75 10.6103 21.671 10.4697 21.5303C10.329 21.3897 10.25 21.1989 10.25 21V19C10.25 18.8011 10.329 18.6103 10.4697 18.4697C10.6103 18.329 10.8011 18.25 11 18.25Z"/>
</svg>